solid OpenSCAD_Model
  facet normal 1 -0 0
    outer loop
      vertex 4.4 15.25 2
      vertex 4.4 17.25 0
      vertex 4.4 17.25 2
    endloop
  endfacet
  facet normal 1 0 0
    outer loop
      vertex 4.4 17.25 0
      vertex 4.4 15.25 2
      vertex 4.4 15.25 0
    endloop
  endfacet
  facet normal 0 -1 0
    outer loop
      vertex 4.4 17.25 0
      vertex 55.1 17.25 2
      vertex 4.4 17.25 2
    endloop
  endfacet
  facet normal 0 -1 -0
    outer loop
      vertex 55.1 17.25 2
      vertex 4.4 17.25 0
      vertex 55.1 17.25 0
    endloop
  endfacet
  facet normal 0 1 -0
    outer loop
      vertex 55.1 15.25 0
      vertex 4.4 15.25 2
      vertex 55.1 15.25 2
    endloop
  endfacet
  facet normal 0 1 0
    outer loop
      vertex 4.4 15.25 2
      vertex 55.1 15.25 0
      vertex 4.4 15.25 0
    endloop
  endfacet
  facet normal -1 0 0
    outer loop
      vertex 55.1 15.25 0
      vertex 55.1 17.25 2
      vertex 55.1 17.25 0
    endloop
  endfacet
  facet normal -1 -0 0
    outer loop
      vertex 55.1 17.25 2
      vertex 55.1 15.25 0
      vertex 55.1 15.25 2
    endloop
  endfacet
  facet normal -0.99863 -0.0523332 0
    outer loop
      vertex 0.0109558 1.79094 0
      vertex 0 2 17.1
      vertex 0 2 0
    endloop
  endfacet
  facet normal -0.99863 -0.0523332 0
    outer loop
      vertex 0 2 17.1
      vertex 0.0109558 1.79094 0
      vertex 0.0109558 1.79094 17.1
    endloop
  endfacet
  facet normal 0 1 0
    outer loop
      vertex 57.5 32.5 17.1
      vertex 14 32.5 14
      vertex 14 32.5 17.1
    endloop
  endfacet
  facet normal 0 1 0
    outer loop
      vertex 2 32.5 0
      vertex 14 32.5 14
      vertex 57.5 32.5 0
    endloop
  endfacet
  facet normal 0 1 -0
    outer loop
      vertex 57.5 32.5 0
      vertex 14 32.5 14
      vertex 57.5 32.5 17.1
    endloop
  endfacet
  facet normal 0 1 -0
    outer loop
      vertex 8 32.5 14
      vertex 2 32.5 17.1
      vertex 8 32.5 17.1
    endloop
  endfacet
  facet normal 0 1 0
    outer loop
      vertex 8 32.5 14
      vertex 2 32.5 0
      vertex 2 32.5 17.1
    endloop
  endfacet
  facet normal 0 1 0
    outer loop
      vertex 14 32.5 14
      vertex 2 32.5 0
      vertex 8 32.5 14
    endloop
  endfacet
  facet normal -1 0 0
    outer loop
      vertex 0 30.5 0
      vertex 0 21.25 12.3
      vertex 0 30.5 17.1
    endloop
  endfacet
  facet normal -1 0 0
    outer loop
      vertex 0 30.5 0
      vertex 0 11.25 12.3
      vertex 0 21.25 12.3
    endloop
  endfacet
  facet normal -1 0 0
    outer loop
      vertex 0 2 0
      vertex 0 11.25 12.3
      vertex 0 30.5 0
    endloop
  endfacet
  facet normal -1 0 0
    outer loop
      vertex 0 2 17.1
      vertex 0 11.25 12.3
      vertex 0 2 0
    endloop
  endfacet
  facet normal -1 0 0
    outer loop
      vertex 0 11.25 12.3
      vertex 0 2 17.1
      vertex 0 11.25 17.1
    endloop
  endfacet
  facet normal -1 -0 0
    outer loop
      vertex 0 30.5 17.1
      vertex 0 21.25 12.3
      vertex 0 21.25 17.1
    endloop
  endfacet
  facet normal 0.258911 0.965901 -0
    outer loop
      vertex 58.118 32.4021 0
      vertex 57.9158 32.4563 17.1
      vertex 58.118 32.4021 17.1
    endloop
  endfacet
  facet normal 0.258911 0.965901 0
    outer loop
      vertex 57.9158 32.4563 17.1
      vertex 58.118 32.4021 0
      vertex 57.9158 32.4563 0
    endloop
  endfacet
  facet normal 0.77725 -0.629192 0
    outer loop
      vertex 58.9863 0.661738 17.1
      vertex 59.118 0.824429 0
      vertex 59.118 0.824429 17.1
    endloop
  endfacet
  facet normal 0.77725 -0.629192 0
    outer loop
      vertex 59.118 0.824429 0
      vertex 58.9863 0.661738 17.1
      vertex 58.9863 0.661738 0
    endloop
  endfacet
  facet normal -0.93358 -0.35837 0
    outer loop
      vertex 0.172909 1.18653 0
      vertex 0.0978861 1.38197 17.1
      vertex 0.0978861 1.38197 0
    endloop
  endfacet
  facet normal -0.93358 -0.35837 0
    outer loop
      vertex 0.0978861 1.38197 17.1
      vertex 0.172909 1.18653 0
      vertex 0.172909 1.18653 17.1
    endloop
  endfacet
  facet normal 0.965904 -0.258899 0
    outer loop
      vertex 59.4021 1.38197 17.1
      vertex 59.4563 1.58418 0
      vertex 59.4563 1.58418 17.1
    endloop
  endfacet
  facet normal 0.965904 -0.258899 0
    outer loop
      vertex 59.4563 1.58418 0
      vertex 59.4021 1.38197 17.1
      vertex 59.4021 1.38197 0
    endloop
  endfacet
  facet normal -0.89098 0.454042 0
    outer loop
      vertex 0.172909 31.3135 0
      vertex 0.267949 31.5 17.1
      vertex 0.267949 31.5 0
    endloop
  endfacet
  facet normal -0.89098 0.454042 0
    outer loop
      vertex 0.267949 31.5 17.1
      vertex 0.172909 31.3135 0
      vertex 0.172909 31.3135 17.1
    endloop
  endfacet
  facet normal 1 0 0
    outer loop
      vertex 59.5 9.25 17.1
      vertex 59.5 2 17.1
      vertex 59.5 9.25 15.6
    endloop
  endfacet
  facet normal 1 0 0
    outer loop
      vertex 59.5 23.25 15.6
      vertex 59.5 30.5 17.1
      vertex 59.5 23.25 17.1
    endloop
  endfacet
  facet normal 1 0 0
    outer loop
      vertex 59.5 30.5 17.1
      vertex 59.5 23.25 15.6
      vertex 59.5 30.5 0
    endloop
  endfacet
  facet normal 1 -0 0
    outer loop
      vertex 59.5 9.25 15.6
      vertex 59.5 30.5 0
      vertex 59.5 23.25 15.6
    endloop
  endfacet
  facet normal 1 0 0
    outer loop
      vertex 59.5 2 0
      vertex 59.5 9.25 15.6
      vertex 59.5 2 17.1
    endloop
  endfacet
  facet normal 1 0 0
    outer loop
      vertex 59.5 9.25 15.6
      vertex 59.5 2 0
      vertex 59.5 30.5 0
    endloop
  endfacet
  facet normal -0.933616 0.358274 0
    outer loop
      vertex 0.0978861 31.118 0
      vertex 0.172909 31.3135 17.1
      vertex 0.172909 31.3135 0
    endloop
  endfacet
  facet normal -0.933616 0.358274 0
    outer loop
      vertex 0.172909 31.3135 17.1
      vertex 0.0978861 31.118 0
      vertex 0.0978861 31.118 17.1
    endloop
  endfacet
  facet normal 0.838708 -0.544581 0
    outer loop
      vertex 59.118 0.824429 17.1
      vertex 59.232 1 0
      vertex 59.232 1 17.1
    endloop
  endfacet
  facet normal 0.838708 -0.544581 0
    outer loop
      vertex 59.232 1 0
      vertex 59.118 0.824429 17.1
      vertex 59.118 0.824429 0
    endloop
  endfacet
  facet normal -0.156437 -0.987688 0
    outer loop
      vertex 1.58418 0.043704 0
      vertex 1.79094 0.0109558 17.1
      vertex 1.58418 0.043704 17.1
    endloop
  endfacet
  facet normal -0.156437 -0.987688 -0
    outer loop
      vertex 1.79094 0.0109558 17.1
      vertex 1.58418 0.043704 0
      vertex 1.79094 0.0109558 0
    endloop
  endfacet
  facet normal -0.629192 0.77725 0
    outer loop
      vertex 0.824429 32.118 0
      vertex 0.661738 31.9863 17.1
      vertex 0.824429 32.118 17.1
    endloop
  endfacet
  facet normal -0.629192 0.77725 0
    outer loop
      vertex 0.661738 31.9863 17.1
      vertex 0.824429 32.118 0
      vertex 0.661738 31.9863 0
    endloop
  endfacet
  facet normal -0.70704 0.707174 0
    outer loop
      vertex 0.51371 31.8383 0
      vertex 0.661738 31.9863 17.1
      vertex 0.661738 31.9863 0
    endloop
  endfacet
  facet normal -0.70704 0.707174 0
    outer loop
      vertex 0.661738 31.9863 17.1
      vertex 0.51371 31.8383 0
      vertex 0.51371 31.8383 17.1
    endloop
  endfacet
  facet normal 0.707174 -0.70704 0
    outer loop
      vertex 58.8383 0.51371 0
      vertex 58.9863 0.661738 17.1
      vertex 58.8383 0.51371 17.1
    endloop
  endfacet
  facet normal 0.707174 -0.70704 0
    outer loop
      vertex 58.9863 0.661738 17.1
      vertex 58.8383 0.51371 0
      vertex 58.9863 0.661738 0
    endloop
  endfacet
  facet normal 0 -1 0
    outer loop
      vertex 2 0 17.1
      vertex 8 0 14
      vertex 8 0 17.1
    endloop
  endfacet
  facet normal 0 -1 -0
    outer loop
      vertex 8 0 14
      vertex 2 0 0
      vertex 14 0 14
    endloop
  endfacet
  facet normal 0 -1 0
    outer loop
      vertex 2 0 0
      vertex 8 0 14
      vertex 2 0 17.1
    endloop
  endfacet
  facet normal 0 -1 0
    outer loop
      vertex 14 0 14
      vertex 57.5 0 17.1
      vertex 14 0 17.1
    endloop
  endfacet
  facet normal 0 -1 0
    outer loop
      vertex 57.5 0 0
      vertex 14 0 14
      vertex 2 0 0
    endloop
  endfacet
  facet normal 0 -1 0
    outer loop
      vertex 14 0 14
      vertex 57.5 0 0
      vertex 57.5 0 17.1
    endloop
  endfacet
  facet normal -0.777164 0.629298 0
    outer loop
      vertex 0.381966 31.6756 0
      vertex 0.51371 31.8383 17.1
      vertex 0.51371 31.8383 0
    endloop
  endfacet
  facet normal -0.777164 0.629298 0
    outer loop
      vertex 0.51371 31.8383 17.1
      vertex 0.381966 31.6756 0
      vertex 0.381966 31.6756 17.1
    endloop
  endfacet
  facet normal -0.987688 -0.156437 0
    outer loop
      vertex 0.043704 1.58418 0
      vertex 0.0109558 1.79094 17.1
      vertex 0.0109558 1.79094 0
    endloop
  endfacet
  facet normal -0.987688 -0.156437 0
    outer loop
      vertex 0.0109558 1.79094 17.1
      vertex 0.043704 1.58418 0
      vertex 0.043704 1.58418 17.1
    endloop
  endfacet
  facet normal 0.454042 -0.89098 0
    outer loop
      vertex 58.3135 0.172909 0
      vertex 58.5 0.267949 17.1
      vertex 58.3135 0.172909 17.1
    endloop
  endfacet
  facet normal 0.454042 -0.89098 0
    outer loop
      vertex 58.5 0.267949 17.1
      vertex 58.3135 0.172909 0
      vertex 58.5 0.267949 0
    endloop
  endfacet
  facet normal -0.965926 -0.258819 0
    outer loop
      vertex 0.0978861 1.38197 0
      vertex 0.043704 1.58418 17.1
      vertex 0.043704 1.58418 0
    endloop
  endfacet
  facet normal -0.965926 -0.258819 0
    outer loop
      vertex 0.043704 1.58418 17.1
      vertex 0.0978861 1.38197 0
      vertex 0.0978861 1.38197 17.1
    endloop
  endfacet
  facet normal -0.707107 -0.707107 0
    outer loop
      vertex 0.661738 0.51371 0
      vertex 0.51371 0.661738 17.1
      vertex 0.51371 0.661738 0
    endloop
  endfacet
  facet normal -0.707107 -0.707107 0
    outer loop
      vertex 0.51371 0.661738 17.1
      vertex 0.661738 0.51371 0
      vertex 0.661738 0.51371 17.1
    endloop
  endfacet
  facet normal 0.258831 -0.965923 0
    outer loop
      vertex 57.9158 0.043704 0
      vertex 58.118 0.0978861 17.1
      vertex 57.9158 0.043704 17.1
    endloop
  endfacet
  facet normal 0.258831 -0.965923 0
    outer loop
      vertex 58.118 0.0978861 17.1
      vertex 57.9158 0.043704 0
      vertex 58.118 0.0978861 0
    endloop
  endfacet
  facet normal -0.258819 -0.965926 0
    outer loop
      vertex 1.38197 0.0978861 0
      vertex 1.58418 0.043704 17.1
      vertex 1.38197 0.0978861 17.1
    endloop
  endfacet
  facet normal -0.258819 -0.965926 -0
    outer loop
      vertex 1.58418 0.043704 17.1
      vertex 1.38197 0.0978861 0
      vertex 1.58418 0.043704 0
    endloop
  endfacet
  facet normal 0.777267 0.629171 0
    outer loop
      vertex 59.118 31.6756 17.1
      vertex 58.9863 31.8383 0
      vertex 58.9863 31.8383 17.1
    endloop
  endfacet
  facet normal 0.777267 0.629171 0
    outer loop
      vertex 58.9863 31.8383 0
      vertex 59.118 31.6756 17.1
      vertex 59.118 31.6756 0
    endloop
  endfacet
  facet normal 0.998619 0.0525338 0
    outer loop
      vertex 59.5 30.5 17.1
      vertex 59.489 30.7091 0
      vertex 59.489 30.7091 17.1
    endloop
  endfacet
  facet normal 0.998619 0.0525338 0
    outer loop
      vertex 59.489 30.7091 0
      vertex 59.5 30.5 17.1
      vertex 59.5 30.5 0
    endloop
  endfacet
  facet normal -0.454211 0.890894 0
    outer loop
      vertex 1.18653 32.3271 0
      vertex 1 32.232 17.1
      vertex 1.18653 32.3271 17.1
    endloop
  endfacet
  facet normal -0.454211 0.890894 0
    outer loop
      vertex 1 32.232 17.1
      vertex 1.18653 32.3271 0
      vertex 1 32.232 0
    endloop
  endfacet
  facet normal 0.544575 -0.838712 0
    outer loop
      vertex 58.5 0.267949 0
      vertex 58.6756 0.381966 17.1
      vertex 58.5 0.267949 17.1
    endloop
  endfacet
  facet normal 0.544575 -0.838712 0
    outer loop
      vertex 58.6756 0.381966 17.1
      vertex 58.5 0.267949 0
      vertex 58.6756 0.381966 0
    endloop
  endfacet
  facet normal 0.358274 -0.933616 0
    outer loop
      vertex 58.118 0.0978861 0
      vertex 58.3135 0.172909 17.1
      vertex 58.118 0.0978861 17.1
    endloop
  endfacet
  facet normal 0.358274 -0.933616 0
    outer loop
      vertex 58.3135 0.172909 17.1
      vertex 58.118 0.0978861 0
      vertex 58.3135 0.172909 0
    endloop
  endfacet
  facet normal 0.890864 0.454269 0
    outer loop
      vertex 59.3271 31.3135 17.1
      vertex 59.232 31.5 0
      vertex 59.232 31.5 17.1
    endloop
  endfacet
  facet normal 0.890864 0.454269 0
    outer loop
      vertex 59.232 31.5 0
      vertex 59.3271 31.3135 17.1
      vertex 59.3271 31.3135 0
    endloop
  endfacet
  facet normal 0.965901 0.258911 0
    outer loop
      vertex 59.4563 30.9158 17.1
      vertex 59.4021 31.118 0
      vertex 59.4021 31.118 17.1
    endloop
  endfacet
  facet normal 0.965901 0.258911 0
    outer loop
      vertex 59.4021 31.118 0
      vertex 59.4563 30.9158 17.1
      vertex 59.4563 30.9158 0
    endloop
  endfacet
  facet normal 0.629298 -0.777164 0
    outer loop
      vertex 58.6756 0.381966 0
      vertex 58.8383 0.51371 17.1
      vertex 58.6756 0.381966 17.1
    endloop
  endfacet
  facet normal 0.629298 -0.777164 0
    outer loop
      vertex 58.8383 0.51371 17.1
      vertex 58.6756 0.381966 0
      vertex 58.8383 0.51371 0
    endloop
  endfacet
  facet normal -0.965923 0.258831 0
    outer loop
      vertex 0.043704 30.9158 0
      vertex 0.0978861 31.118 17.1
      vertex 0.0978861 31.118 0
    endloop
  endfacet
  facet normal -0.965923 0.258831 0
    outer loop
      vertex 0.0978861 31.118 17.1
      vertex 0.043704 30.9158 0
      vertex 0.043704 30.9158 17.1
    endloop
  endfacet
  facet normal 0.987723 -0.156213 0
    outer loop
      vertex 59.4563 1.58418 17.1
      vertex 59.489 1.79094 0
      vertex 59.489 1.79094 17.1
    endloop
  endfacet
  facet normal 0.987723 -0.156213 0
    outer loop
      vertex 59.489 1.79094 0
      vertex 59.4563 1.58418 17.1
      vertex 59.4563 1.58418 0
    endloop
  endfacet
  facet normal 0.0525338 0.998619 -0
    outer loop
      vertex 57.7091 32.489 0
      vertex 57.5 32.5 17.1
      vertex 57.7091 32.489 17.1
    endloop
  endfacet
  facet normal 0.0525338 0.998619 0
    outer loop
      vertex 57.5 32.5 17.1
      vertex 57.7091 32.489 0
      vertex 57.5 32.5 0
    endloop
  endfacet
  facet normal 0.454269 0.890864 -0
    outer loop
      vertex 58.5 32.232 0
      vertex 58.3135 32.3271 17.1
      vertex 58.5 32.232 17.1
    endloop
  endfacet
  facet normal 0.454269 0.890864 0
    outer loop
      vertex 58.3135 32.3271 17.1
      vertex 58.5 32.232 0
      vertex 58.3135 32.3271 0
    endloop
  endfacet
  facet normal -0.258899 0.965904 0
    outer loop
      vertex 1.58418 32.4563 0
      vertex 1.38197 32.4021 17.1
      vertex 1.58418 32.4563 17.1
    endloop
  endfacet
  facet normal -0.258899 0.965904 0
    outer loop
      vertex 1.38197 32.4021 17.1
      vertex 1.58418 32.4563 0
      vertex 1.38197 32.4021 0
    endloop
  endfacet
  facet normal -0.35837 -0.93358 0
    outer loop
      vertex 1.18653 0.172909 0
      vertex 1.38197 0.0978861 17.1
      vertex 1.18653 0.172909 17.1
    endloop
  endfacet
  facet normal -0.35837 -0.93358 -0
    outer loop
      vertex 1.38197 0.0978861 17.1
      vertex 1.18653 0.172909 0
      vertex 1.38197 0.0978861 0
    endloop
  endfacet
  facet normal 0.156257 0.987716 -0
    outer loop
      vertex 57.9158 32.4563 0
      vertex 57.7091 32.489 17.1
      vertex 57.9158 32.4563 17.1
    endloop
  endfacet
  facet normal 0.156257 0.987716 0
    outer loop
      vertex 57.7091 32.489 17.1
      vertex 57.9158 32.4563 0
      vertex 57.7091 32.489 0
    endloop
  endfacet
  facet normal -0.453984 -0.89101 0
    outer loop
      vertex 1 0.267949 0
      vertex 1.18653 0.172909 17.1
      vertex 1 0.267949 17.1
    endloop
  endfacet
  facet normal -0.453984 -0.89101 -0
    outer loop
      vertex 1.18653 0.172909 17.1
      vertex 1 0.267949 0
      vertex 1.18653 0.172909 0
    endloop
  endfacet
  facet normal -0.156213 0.987723 0
    outer loop
      vertex 1.79094 32.489 0
      vertex 1.58418 32.4563 17.1
      vertex 1.79094 32.489 17.1
    endloop
  endfacet
  facet normal -0.156213 0.987723 0
    outer loop
      vertex 1.58418 32.4563 17.1
      vertex 1.79094 32.489 0
      vertex 1.58418 32.4563 0
    endloop
  endfacet
  facet normal 0.890894 -0.454211 0
    outer loop
      vertex 59.232 1 17.1
      vertex 59.3271 1.18653 0
      vertex 59.3271 1.18653 17.1
    endloop
  endfacet
  facet normal 0.890894 -0.454211 0
    outer loop
      vertex 59.3271 1.18653 0
      vertex 59.232 1 17.1
      vertex 59.232 1 0
    endloop
  endfacet
  facet normal 0.358179 0.933653 -0
    outer loop
      vertex 58.3135 32.3271 0
      vertex 58.118 32.4021 17.1
      vertex 58.3135 32.3271 17.1
    endloop
  endfacet
  facet normal 0.358179 0.933653 0
    outer loop
      vertex 58.118 32.4021 17.1
      vertex 58.3135 32.3271 0
      vertex 58.118 32.4021 0
    endloop
  endfacet
  facet normal -0.777147 -0.629319 0
    outer loop
      vertex 0.51371 0.661738 0
      vertex 0.381966 0.824429 17.1
      vertex 0.381966 0.824429 0
    endloop
  endfacet
  facet normal -0.777147 -0.629319 0
    outer loop
      vertex 0.381966 0.824429 17.1
      vertex 0.51371 0.661738 0
      vertex 0.51371 0.661738 17.1
    endloop
  endfacet
  facet normal -0 0 1
    outer loop
      vertex 0 11.25 17.1
      vertex 2 2.99 17.1
      vertex 2 11.25 17.1
    endloop
  endfacet
  facet normal 0 -0 1
    outer loop
      vertex 0.0109558 1.79094 17.1
      vertex 2 2.99 17.1
      vertex 0 2 17.1
    endloop
  endfacet
  facet normal 0 0 1
    outer loop
      vertex 2 2.99 17.1
      vertex 1.79094 0.0109558 17.1
      vertex 2 0 17.1
    endloop
  endfacet
  facet normal 0 0 1
    outer loop
      vertex 2 2.99 17.1
      vertex 1.58418 0.043704 17.1
      vertex 1.79094 0.0109558 17.1
    endloop
  endfacet
  facet normal 0 0 1
    outer loop
      vertex 2 2.99 17.1
      vertex 1.38197 0.0978861 17.1
      vertex 1.58418 0.043704 17.1
    endloop
  endfacet
  facet normal 0 0 1
    outer loop
      vertex 2 2.99 17.1
      vertex 1.18653 0.172909 17.1
      vertex 1.38197 0.0978861 17.1
    endloop
  endfacet
  facet normal 0 0 1
    outer loop
      vertex 2 2.99 17.1
      vertex 1 0.267949 17.1
      vertex 1.18653 0.172909 17.1
    endloop
  endfacet
  facet normal 0 0 1
    outer loop
      vertex 2 2.99 17.1
      vertex 0.824429 0.381966 17.1
      vertex 1 0.267949 17.1
    endloop
  endfacet
  facet normal 0 0 1
    outer loop
      vertex 2 2.99 17.1
      vertex 0.661738 0.51371 17.1
      vertex 0.824429 0.381966 17.1
    endloop
  endfacet
  facet normal 0 0 1
    outer loop
      vertex 2 2.99 17.1
      vertex 0.51371 0.661738 17.1
      vertex 0.661738 0.51371 17.1
    endloop
  endfacet
  facet normal 0 0 1
    outer loop
      vertex 2 2.99 17.1
      vertex 0.381966 0.824429 17.1
      vertex 0.51371 0.661738 17.1
    endloop
  endfacet
  facet normal 0 0 1
    outer loop
      vertex 2 2.99 17.1
      vertex 0.267949 1 17.1
      vertex 0.381966 0.824429 17.1
    endloop
  endfacet
  facet normal 0 0 1
    outer loop
      vertex 2 2.99 17.1
      vertex 0.172909 1.18653 17.1
      vertex 0.267949 1 17.1
    endloop
  endfacet
  facet normal 0 0 1
    outer loop
      vertex 2 2.99 17.1
      vertex 0.0978861 1.38197 17.1
      vertex 0.172909 1.18653 17.1
    endloop
  endfacet
  facet normal 0 0 1
    outer loop
      vertex 2 2.99 17.1
      vertex 0.043704 1.58418 17.1
      vertex 0.0978861 1.38197 17.1
    endloop
  endfacet
  facet normal 0 0 1
    outer loop
      vertex 2 2.99 17.1
      vertex 0 11.25 17.1
      vertex 0 2 17.1
    endloop
  endfacet
  facet normal 0 0 1
    outer loop
      vertex 2 2.99 17.1
      vertex 0.0109558 1.79094 17.1
      vertex 0.043704 1.58418 17.1
    endloop
  endfacet
  facet normal -0 0 1
    outer loop
      vertex 57.5 2.99 17.1
      vertex 59.5 2 17.1
      vertex 59.5 9.25 17.1
    endloop
  endfacet
  facet normal 0 0 1
    outer loop
      vertex 59.5 2 17.1
      vertex 57.5 2.99 17.1
      vertex 59.489 1.79094 17.1
    endloop
  endfacet
  facet normal 0 0 1
    outer loop
      vertex 59.489 1.79094 17.1
      vertex 57.5 2.99 17.1
      vertex 59.4563 1.58418 17.1
    endloop
  endfacet
  facet normal 0 0 1
    outer loop
      vertex 59.4563 1.58418 17.1
      vertex 57.5 2.99 17.1
      vertex 59.4021 1.38197 17.1
    endloop
  endfacet
  facet normal 0 0 1
    outer loop
      vertex 59.4021 1.38197 17.1
      vertex 57.5 2.99 17.1
      vertex 59.3271 1.18653 17.1
    endloop
  endfacet
  facet normal 0 0 1
    outer loop
      vertex 59.3271 1.18653 17.1
      vertex 57.5 2.99 17.1
      vertex 59.232 1 17.1
    endloop
  endfacet
  facet normal 0 0 1
    outer loop
      vertex 59.232 1 17.1
      vertex 57.5 2.99 17.1
      vertex 59.118 0.824429 17.1
    endloop
  endfacet
  facet normal 0 0 1
    outer loop
      vertex 59.118 0.824429 17.1
      vertex 57.5 2.99 17.1
      vertex 58.9863 0.661738 17.1
    endloop
  endfacet
  facet normal 0 0 1
    outer loop
      vertex 58.9863 0.661738 17.1
      vertex 57.5 2.99 17.1
      vertex 58.8383 0.51371 17.1
    endloop
  endfacet
  facet normal 0 0 1
    outer loop
      vertex 58.8383 0.51371 17.1
      vertex 57.5 2.99 17.1
      vertex 58.6756 0.381966 17.1
    endloop
  endfacet
  facet normal 0 0 1
    outer loop
      vertex 58.6756 0.381966 17.1
      vertex 57.5 2.99 17.1
      vertex 58.5 0.267949 17.1
    endloop
  endfacet
  facet normal 0 0 1
    outer loop
      vertex 58.5 0.267949 17.1
      vertex 57.5 2.99 17.1
      vertex 58.3135 0.172909 17.1
    endloop
  endfacet
  facet normal 0 0 1
    outer loop
      vertex 58.3135 0.172909 17.1
      vertex 57.5 2.99 17.1
      vertex 58.118 0.0978861 17.1
    endloop
  endfacet
  facet normal 0 0 1
    outer loop
      vertex 58.118 0.0978861 17.1
      vertex 57.5 2.99 17.1
      vertex 57.9158 0.043704 17.1
    endloop
  endfacet
  facet normal 0 0 1
    outer loop
      vertex 57.5 2.99 17.1
      vertex 59.5 9.25 17.1
      vertex 57.5 9.25 17.1
    endloop
  endfacet
  facet normal 0 0 1
    outer loop
      vertex 57.9158 0.043704 17.1
      vertex 57.5 2.99 17.1
      vertex 57.7091 0.0109558 17.1
    endloop
  endfacet
  facet normal 0 0 1
    outer loop
      vertex 57.5 2.99 17.1
      vertex 57.5 0 17.1
      vertex 57.7091 0.0109558 17.1
    endloop
  endfacet
  facet normal 0 0 1
    outer loop
      vertex 57.5 2.99 17.1
      vertex 14 1.99 17.1
      vertex 57.5 0 17.1
    endloop
  endfacet
  facet normal -0 0 1
    outer loop
      vertex 2 2.99 17.1
      vertex 14 1.99 17.1
      vertex 57.5 2.99 17.1
    endloop
  endfacet
  facet normal 0 0 1
    outer loop
      vertex 14 1.99 17.1
      vertex 2 2.99 17.1
      vertex 8 1.99 17.1
    endloop
  endfacet
  facet normal 0 0 1
    outer loop
      vertex 2 0 17.1
      vertex 8 1.99 17.1
      vertex 2 2.99 17.1
    endloop
  endfacet
  facet normal 0 0 1
    outer loop
      vertex 8 1.99 17.1
      vertex 2 0 17.1
      vertex 8 0 17.1
    endloop
  endfacet
  facet normal 0 0 1
    outer loop
      vertex 57.5 0 17.1
      vertex 14 1.99 17.1
      vertex 14 0 17.1
    endloop
  endfacet
  facet normal 0 0 1
    outer loop
      vertex 8 32.5 17.1
      vertex 2 32.5 17.1
      vertex 8 30.51 17.1
    endloop
  endfacet
  facet normal 0 0 1
    outer loop
      vertex 14 30.51 17.1
      vertex 57.5 32.5 17.1
      vertex 14 32.5 17.1
    endloop
  endfacet
  facet normal 0 0 1
    outer loop
      vertex 57.5 32.5 17.1
      vertex 14 30.51 17.1
      vertex 57.5 29.51 17.1
    endloop
  endfacet
  facet normal 0 0 1
    outer loop
      vertex 2 29.51 17.1
      vertex 14 30.51 17.1
      vertex 8 30.51 17.1
    endloop
  endfacet
  facet normal 0 0 1
    outer loop
      vertex 14 30.51 17.1
      vertex 2 29.51 17.1
      vertex 57.5 29.51 17.1
    endloop
  endfacet
  facet normal 0 0 1
    outer loop
      vertex 2 32.5 17.1
      vertex 2 29.51 17.1
      vertex 8 30.51 17.1
    endloop
  endfacet
  facet normal -0 0 1
    outer loop
      vertex 1.79094 32.489 17.1
      vertex 2 29.51 17.1
      vertex 2 32.5 17.1
    endloop
  endfacet
  facet normal -0 0 1
    outer loop
      vertex 1.58418 32.4563 17.1
      vertex 2 29.51 17.1
      vertex 1.79094 32.489 17.1
    endloop
  endfacet
  facet normal -0 0 1
    outer loop
      vertex 1.38197 32.4021 17.1
      vertex 2 29.51 17.1
      vertex 1.58418 32.4563 17.1
    endloop
  endfacet
  facet normal -0 0 1
    outer loop
      vertex 1.18653 32.3271 17.1
      vertex 2 29.51 17.1
      vertex 1.38197 32.4021 17.1
    endloop
  endfacet
  facet normal -0 0 1
    outer loop
      vertex 1 32.232 17.1
      vertex 2 29.51 17.1
      vertex 1.18653 32.3271 17.1
    endloop
  endfacet
  facet normal -0 0 1
    outer loop
      vertex 0.824429 32.118 17.1
      vertex 2 29.51 17.1
      vertex 1 32.232 17.1
    endloop
  endfacet
  facet normal -0 0 1
    outer loop
      vertex 0.661738 31.9863 17.1
      vertex 2 29.51 17.1
      vertex 0.824429 32.118 17.1
    endloop
  endfacet
  facet normal -0 0 1
    outer loop
      vertex 0.51371 31.8383 17.1
      vertex 2 29.51 17.1
      vertex 0.661738 31.9863 17.1
    endloop
  endfacet
  facet normal -0 0 1
    outer loop
      vertex 0.381966 31.6756 17.1
      vertex 2 29.51 17.1
      vertex 0.51371 31.8383 17.1
    endloop
  endfacet
  facet normal -0 0 1
    outer loop
      vertex 0.267949 31.5 17.1
      vertex 2 29.51 17.1
      vertex 0.381966 31.6756 17.1
    endloop
  endfacet
  facet normal -0 0 1
    outer loop
      vertex 0.172909 31.3135 17.1
      vertex 2 29.51 17.1
      vertex 0.267949 31.5 17.1
    endloop
  endfacet
  facet normal -0 0 1
    outer loop
      vertex 0.0978861 31.118 17.1
      vertex 2 29.51 17.1
      vertex 0.172909 31.3135 17.1
    endloop
  endfacet
  facet normal -0 0 1
    outer loop
      vertex 0.043704 30.9158 17.1
      vertex 2 29.51 17.1
      vertex 0.0978861 31.118 17.1
    endloop
  endfacet
  facet normal -0 0 1
    outer loop
      vertex 0.0109558 30.7091 17.1
      vertex 2 29.51 17.1
      vertex 0.043704 30.9158 17.1
    endloop
  endfacet
  facet normal 0 0 1
    outer loop
      vertex 2 29.51 17.1
      vertex 0.0109558 30.7091 17.1
      vertex 0 30.5 17.1
    endloop
  endfacet
  facet normal 0 0 1
    outer loop
      vertex 0 21.25 17.1
      vertex 2 29.51 17.1
      vertex 0 30.5 17.1
    endloop
  endfacet
  facet normal 0 0 1
    outer loop
      vertex 2 29.51 17.1
      vertex 0 21.25 17.1
      vertex 2 21.25 17.1
    endloop
  endfacet
  facet normal 0 0 1
    outer loop
      vertex 57.5 29.51 17.1
      vertex 59.5 30.5 17.1
      vertex 59.489 30.7091 17.1
    endloop
  endfacet
  facet normal 0 0 1
    outer loop
      vertex 57.5 29.51 17.1
      vertex 59.489 30.7091 17.1
      vertex 59.4563 30.9158 17.1
    endloop
  endfacet
  facet normal 0 0 1
    outer loop
      vertex 57.5 29.51 17.1
      vertex 59.4563 30.9158 17.1
      vertex 59.4021 31.118 17.1
    endloop
  endfacet
  facet normal 0 0 1
    outer loop
      vertex 57.5 29.51 17.1
      vertex 59.4021 31.118 17.1
      vertex 59.3271 31.3135 17.1
    endloop
  endfacet
  facet normal 0 0 1
    outer loop
      vertex 57.5 29.51 17.1
      vertex 59.3271 31.3135 17.1
      vertex 59.232 31.5 17.1
    endloop
  endfacet
  facet normal 0 0 1
    outer loop
      vertex 57.5 29.51 17.1
      vertex 59.232 31.5 17.1
      vertex 59.118 31.6756 17.1
    endloop
  endfacet
  facet normal 0 0 1
    outer loop
      vertex 57.5 29.51 17.1
      vertex 59.118 31.6756 17.1
      vertex 58.9863 31.8383 17.1
    endloop
  endfacet
  facet normal 0 0 1
    outer loop
      vertex 57.5 29.51 17.1
      vertex 58.9863 31.8383 17.1
      vertex 58.8383 31.9863 17.1
    endloop
  endfacet
  facet normal 0 0 1
    outer loop
      vertex 57.5 29.51 17.1
      vertex 58.8383 31.9863 17.1
      vertex 58.6756 32.118 17.1
    endloop
  endfacet
  facet normal 0 0 1
    outer loop
      vertex 57.5 29.51 17.1
      vertex 58.6756 32.118 17.1
      vertex 58.5 32.232 17.1
    endloop
  endfacet
  facet normal 0 0 1
    outer loop
      vertex 57.5 29.51 17.1
      vertex 58.5 32.232 17.1
      vertex 58.3135 32.3271 17.1
    endloop
  endfacet
  facet normal 0 0 1
    outer loop
      vertex 57.5 29.51 17.1
      vertex 58.3135 32.3271 17.1
      vertex 58.118 32.4021 17.1
    endloop
  endfacet
  facet normal 0 0 1
    outer loop
      vertex 57.5 29.51 17.1
      vertex 58.118 32.4021 17.1
      vertex 57.9158 32.4563 17.1
    endloop
  endfacet
  facet normal 0 0 1
    outer loop
      vertex 57.5 29.51 17.1
      vertex 57.9158 32.4563 17.1
      vertex 57.7091 32.489 17.1
    endloop
  endfacet
  facet normal 0 0 1
    outer loop
      vertex 57.5 29.51 17.1
      vertex 57.7091 32.489 17.1
      vertex 57.5 32.5 17.1
    endloop
  endfacet
  facet normal 0 0 1
    outer loop
      vertex 59.5 30.5 17.1
      vertex 57.5 29.51 17.1
      vertex 59.5 23.25 17.1
    endloop
  endfacet
  facet normal 0 0 1
    outer loop
      vertex 59.5 23.25 17.1
      vertex 57.5 29.51 17.1
      vertex 57.5 23.25 17.1
    endloop
  endfacet
  facet normal -0.544581 0.838708 0
    outer loop
      vertex 1 32.232 0
      vertex 0.824429 32.118 17.1
      vertex 1 32.232 17.1
    endloop
  endfacet
  facet normal -0.544581 0.838708 0
    outer loop
      vertex 0.824429 32.118 17.1
      vertex 1 32.232 0
      vertex 0.824429 32.118 0
    endloop
  endfacet
  facet normal -0.0523332 -0.99863 0
    outer loop
      vertex 1.79094 0.0109558 0
      vertex 2 0 17.1
      vertex 1.79094 0.0109558 17.1
    endloop
  endfacet
  facet normal -0.0523332 -0.99863 -0
    outer loop
      vertex 2 0 17.1
      vertex 1.79094 0.0109558 0
      vertex 2 0 0
    endloop
  endfacet
  facet normal 0.838749 0.544518 0
    outer loop
      vertex 59.232 31.5 17.1
      vertex 59.118 31.6756 0
      vertex 59.118 31.6756 17.1
    endloop
  endfacet
  facet normal 0.838749 0.544518 0
    outer loop
      vertex 59.118 31.6756 0
      vertex 59.232 31.5 17.1
      vertex 59.232 31.5 0
    endloop
  endfacet
  facet normal -0.358275 0.933616 0
    outer loop
      vertex 1.38197 32.4021 0
      vertex 1.18653 32.3271 17.1
      vertex 1.38197 32.4021 17.1
    endloop
  endfacet
  facet normal -0.358275 0.933616 0
    outer loop
      vertex 1.18653 32.3271 17.1
      vertex 1.38197 32.4021 0
      vertex 1.18653 32.3271 0
    endloop
  endfacet
  facet normal 0.156482 -0.987681 0
    outer loop
      vertex 57.7091 0.0109558 0
      vertex 57.9158 0.043704 17.1
      vertex 57.7091 0.0109558 17.1
    endloop
  endfacet
  facet normal 0.156482 -0.987681 0
    outer loop
      vertex 57.9158 0.043704 17.1
      vertex 57.7091 0.0109558 0
      vertex 57.9158 0.043704 0
    endloop
  endfacet
  facet normal -0.0525438 0.998619 0
    outer loop
      vertex 2 32.5 0
      vertex 1.79094 32.489 17.1
      vertex 2 32.5 17.1
    endloop
  endfacet
  facet normal -0.0525438 0.998619 0
    outer loop
      vertex 1.79094 32.489 17.1
      vertex 2 32.5 0
      vertex 1.79094 32.489 0
    endloop
  endfacet
  facet normal 0.0523233 -0.99863 0
    outer loop
      vertex 57.5 0 0
      vertex 57.7091 0.0109558 17.1
      vertex 57.5 0 17.1
    endloop
  endfacet
  facet normal 0.0523233 -0.99863 0
    outer loop
      vertex 57.7091 0.0109558 17.1
      vertex 57.5 0 0
      vertex 57.7091 0.0109558 0
    endloop
  endfacet
  facet normal -0.987681 0.156482 0
    outer loop
      vertex 0.0109558 30.7091 0
      vertex 0.043704 30.9158 17.1
      vertex 0.043704 30.9158 0
    endloop
  endfacet
  facet normal -0.987681 0.156482 0
    outer loop
      vertex 0.043704 30.9158 17.1
      vertex 0.0109558 30.7091 0
      vertex 0.0109558 30.7091 17.1
    endloop
  endfacet
  facet normal -0.89101 -0.453984 0
    outer loop
      vertex 0.267949 1 0
      vertex 0.172909 1.18653 17.1
      vertex 0.172909 1.18653 0
    endloop
  endfacet
  facet normal -0.89101 -0.453984 0
    outer loop
      vertex 0.172909 1.18653 17.1
      vertex 0.267949 1 0
      vertex 0.267949 1 17.1
    endloop
  endfacet
  facet normal 0.998619 -0.0525438 0
    outer loop
      vertex 59.489 1.79094 17.1
      vertex 59.5 2 0
      vertex 59.5 2 17.1
    endloop
  endfacet
  facet normal 0.998619 -0.0525438 0
    outer loop
      vertex 59.5 2 0
      vertex 59.489 1.79094 17.1
      vertex 59.489 1.79094 0
    endloop
  endfacet
  facet normal -0.838671 -0.544639 0
    outer loop
      vertex 0.381966 0.824429 0
      vertex 0.267949 1 17.1
      vertex 0.267949 1 0
    endloop
  endfacet
  facet normal -0.838671 -0.544639 0
    outer loop
      vertex 0.267949 1 17.1
      vertex 0.381966 0.824429 0
      vertex 0.381966 0.824429 17.1
    endloop
  endfacet
  facet normal 0.933653 0.358179 0
    outer loop
      vertex 59.4021 31.118 17.1
      vertex 59.3271 31.3135 0
      vertex 59.3271 31.3135 17.1
    endloop
  endfacet
  facet normal 0.933653 0.358179 0
    outer loop
      vertex 59.3271 31.3135 0
      vertex 59.4021 31.118 17.1
      vertex 59.4021 31.118 0
    endloop
  endfacet
  facet normal 0.987716 0.156257 0
    outer loop
      vertex 59.489 30.7091 17.1
      vertex 59.4563 30.9158 0
      vertex 59.4563 30.9158 17.1
    endloop
  endfacet
  facet normal 0.987716 0.156257 0
    outer loop
      vertex 59.4563 30.9158 0
      vertex 59.489 30.7091 17.1
      vertex 59.489 30.7091 0
    endloop
  endfacet
  facet normal -0.838712 0.544575 0
    outer loop
      vertex 0.267949 31.5 0
      vertex 0.381966 31.6756 17.1
      vertex 0.381966 31.6756 0
    endloop
  endfacet
  facet normal -0.838712 0.544575 0
    outer loop
      vertex 0.381966 31.6756 17.1
      vertex 0.267949 31.5 0
      vertex 0.267949 31.5 17.1
    endloop
  endfacet
  facet normal -0.629319 -0.777147 0
    outer loop
      vertex 0.661738 0.51371 0
      vertex 0.824429 0.381966 17.1
      vertex 0.661738 0.51371 17.1
    endloop
  endfacet
  facet normal -0.629319 -0.777147 -0
    outer loop
      vertex 0.824429 0.381966 17.1
      vertex 0.661738 0.51371 0
      vertex 0.824429 0.381966 0
    endloop
  endfacet
  facet normal 0.933616 -0.358275 0
    outer loop
      vertex 59.3271 1.18653 17.1
      vertex 59.4021 1.38197 0
      vertex 59.4021 1.38197 17.1
    endloop
  endfacet
  facet normal 0.933616 -0.358275 0
    outer loop
      vertex 59.4021 1.38197 0
      vertex 59.3271 1.18653 17.1
      vertex 59.3271 1.18653 0
    endloop
  endfacet
  facet normal -0.544639 -0.838671 0
    outer loop
      vertex 0.824429 0.381966 0
      vertex 1 0.267949 17.1
      vertex 0.824429 0.381966 17.1
    endloop
  endfacet
  facet normal -0.544639 -0.838671 -0
    outer loop
      vertex 1 0.267949 17.1
      vertex 0.824429 0.381966 0
      vertex 1 0.267949 0
    endloop
  endfacet
  facet normal 0.707107 0.707107 0
    outer loop
      vertex 58.9863 31.8383 17.1
      vertex 58.8383 31.9863 0
      vertex 58.8383 31.9863 17.1
    endloop
  endfacet
  facet normal 0.707107 0.707107 0
    outer loop
      vertex 58.8383 31.9863 0
      vertex 58.9863 31.8383 17.1
      vertex 58.9863 31.8383 0
    endloop
  endfacet
  facet normal 0.629171 0.777267 -0
    outer loop
      vertex 58.8383 31.9863 0
      vertex 58.6756 32.118 17.1
      vertex 58.8383 31.9863 17.1
    endloop
  endfacet
  facet normal 0.629171 0.777267 0
    outer loop
      vertex 58.6756 32.118 17.1
      vertex 58.8383 31.9863 0
      vertex 58.6756 32.118 0
    endloop
  endfacet
  facet normal 0.544518 0.838749 -0
    outer loop
      vertex 58.6756 32.118 0
      vertex 58.5 32.232 17.1
      vertex 58.6756 32.118 17.1
    endloop
  endfacet
  facet normal 0.544518 0.838749 0
    outer loop
      vertex 58.5 32.232 17.1
      vertex 58.6756 32.118 0
      vertex 58.5 32.232 0
    endloop
  endfacet
  facet normal 0 0 -1
    outer loop
      vertex 57.5 0 0
      vertex 59.5 2 0
      vertex 59.489 1.79094 0
    endloop
  endfacet
  facet normal 0 0 -1
    outer loop
      vertex 59.5 2 0
      vertex 55.1 15.25 0
      vertex 59.5 30.5 0
    endloop
  endfacet
  facet normal 0 0 -1
    outer loop
      vertex 57.5 0 0
      vertex 59.489 1.79094 0
      vertex 59.4563 1.58418 0
    endloop
  endfacet
  facet normal 0 0 -1
    outer loop
      vertex 55.1 17.25 0
      vertex 59.5 30.5 0
      vertex 55.1 15.25 0
    endloop
  endfacet
  facet normal 0 0 -1
    outer loop
      vertex 57.5 0 0
      vertex 59.4563 1.58418 0
      vertex 59.4021 1.38197 0
    endloop
  endfacet
  facet normal 0 -0 -1
    outer loop
      vertex 57.5 32.5 0
      vertex 59.5 30.5 0
      vertex 55.1 17.25 0
    endloop
  endfacet
  facet normal 0 0 -1
    outer loop
      vertex 57.5 0 0
      vertex 59.4021 1.38197 0
      vertex 59.3271 1.18653 0
    endloop
  endfacet
  facet normal 0 0 -1
    outer loop
      vertex 59.5 30.5 0
      vertex 57.5 32.5 0
      vertex 59.489 30.7091 0
    endloop
  endfacet
  facet normal 0 0 -1
    outer loop
      vertex 57.5 0 0
      vertex 59.3271 1.18653 0
      vertex 59.232 1 0
    endloop
  endfacet
  facet normal 0 0 -1
    outer loop
      vertex 59.489 30.7091 0
      vertex 57.5 32.5 0
      vertex 59.4563 30.9158 0
    endloop
  endfacet
  facet normal 0 0 -1
    outer loop
      vertex 57.5 0 0
      vertex 59.232 1 0
      vertex 59.118 0.824429 0
    endloop
  endfacet
  facet normal 0 0 -1
    outer loop
      vertex 59.4563 30.9158 0
      vertex 57.5 32.5 0
      vertex 59.4021 31.118 0
    endloop
  endfacet
  facet normal 0 0 -1
    outer loop
      vertex 57.5 0 0
      vertex 59.118 0.824429 0
      vertex 58.9863 0.661738 0
    endloop
  endfacet
  facet normal 0 0 -1
    outer loop
      vertex 59.4021 31.118 0
      vertex 57.5 32.5 0
      vertex 59.3271 31.3135 0
    endloop
  endfacet
  facet normal 0 0 -1
    outer loop
      vertex 57.5 0 0
      vertex 58.9863 0.661738 0
      vertex 58.8383 0.51371 0
    endloop
  endfacet
  facet normal 0 0 -1
    outer loop
      vertex 59.3271 31.3135 0
      vertex 57.5 32.5 0
      vertex 59.232 31.5 0
    endloop
  endfacet
  facet normal 0 0 -1
    outer loop
      vertex 57.5 0 0
      vertex 58.8383 0.51371 0
      vertex 58.6756 0.381966 0
    endloop
  endfacet
  facet normal 0 0 -1
    outer loop
      vertex 59.232 31.5 0
      vertex 57.5 32.5 0
      vertex 59.118 31.6756 0
    endloop
  endfacet
  facet normal 0 0 -1
    outer loop
      vertex 57.5 0 0
      vertex 58.6756 0.381966 0
      vertex 58.5 0.267949 0
    endloop
  endfacet
  facet normal 0 0 -1
    outer loop
      vertex 59.118 31.6756 0
      vertex 57.5 32.5 0
      vertex 58.9863 31.8383 0
    endloop
  endfacet
  facet normal 0 0 -1
    outer loop
      vertex 57.5 0 0
      vertex 58.5 0.267949 0
      vertex 58.3135 0.172909 0
    endloop
  endfacet
  facet normal 0 0 -1
    outer loop
      vertex 58.9863 31.8383 0
      vertex 57.5 32.5 0
      vertex 58.8383 31.9863 0
    endloop
  endfacet
  facet normal 0 0 -1
    outer loop
      vertex 57.5 0 0
      vertex 58.3135 0.172909 0
      vertex 58.118 0.0978861 0
    endloop
  endfacet
  facet normal 0 0 -1
    outer loop
      vertex 58.8383 31.9863 0
      vertex 57.5 32.5 0
      vertex 58.6756 32.118 0
    endloop
  endfacet
  facet normal 0 0 -1
    outer loop
      vertex 57.5 0 0
      vertex 58.118 0.0978861 0
      vertex 57.9158 0.043704 0
    endloop
  endfacet
  facet normal 0 0 -1
    outer loop
      vertex 58.6756 32.118 0
      vertex 57.5 32.5 0
      vertex 58.5 32.232 0
    endloop
  endfacet
  facet normal 0 0 -1
    outer loop
      vertex 57.5 0 0
      vertex 57.9158 0.043704 0
      vertex 57.7091 0.0109558 0
    endloop
  endfacet
  facet normal 0 0 -1
    outer loop
      vertex 58.5 32.232 0
      vertex 57.5 32.5 0
      vertex 58.3135 32.3271 0
    endloop
  endfacet
  facet normal -0 0 -1
    outer loop
      vertex 59.5 2 0
      vertex 57.5 0 0
      vertex 55.1 15.25 0
    endloop
  endfacet
  facet normal 0 0 -1
    outer loop
      vertex 58.3135 32.3271 0
      vertex 57.5 32.5 0
      vertex 58.118 32.4021 0
    endloop
  endfacet
  facet normal 0 0 -1
    outer loop
      vertex 58.118 32.4021 0
      vertex 57.5 32.5 0
      vertex 57.9158 32.4563 0
    endloop
  endfacet
  facet normal 0 0 -1
    outer loop
      vertex 57.5 0 0
      vertex 4.4 15.25 0
      vertex 55.1 15.25 0
    endloop
  endfacet
  facet normal 0 0 -1
    outer loop
      vertex 0 2 0
      vertex 4.4 15.25 0
      vertex 2 0 0
    endloop
  endfacet
  facet normal 0 0 -1
    outer loop
      vertex 2 0 0
      vertex 4.4 15.25 0
      vertex 57.5 0 0
    endloop
  endfacet
  facet normal 0 0 -1
    outer loop
      vertex 57.9158 32.4563 0
      vertex 57.5 32.5 0
      vertex 57.7091 32.489 0
    endloop
  endfacet
  facet normal 0 0 -1
    outer loop
      vertex 4.4 17.25 0
      vertex 57.5 32.5 0
      vertex 55.1 17.25 0
    endloop
  endfacet
  facet normal 0 0 -1
    outer loop
      vertex 4.4 17.25 0
      vertex 2 32.5 0
      vertex 57.5 32.5 0
    endloop
  endfacet
  facet normal -0 0 -1
    outer loop
      vertex 4.4 15.25 0
      vertex 0 2 0
      vertex 4.4 17.25 0
    endloop
  endfacet
  facet normal 0 0 -1
    outer loop
      vertex 0 2 0
      vertex 2 0 0
      vertex 1.79094 0.0109558 0
    endloop
  endfacet
  facet normal 0 0 -1
    outer loop
      vertex 0 30.5 0
      vertex 4.4 17.25 0
      vertex 0 2 0
    endloop
  endfacet
  facet normal 0 0 -1
    outer loop
      vertex 0 2 0
      vertex 1.79094 0.0109558 0
      vertex 1.58418 0.043704 0
    endloop
  endfacet
  facet normal 0 0 -1
    outer loop
      vertex 4.4 17.25 0
      vertex 0 30.5 0
      vertex 2 32.5 0
    endloop
  endfacet
  facet normal 0 0 -1
    outer loop
      vertex 0 2 0
      vertex 1.58418 0.043704 0
      vertex 1.38197 0.0978861 0
    endloop
  endfacet
  facet normal 0 0 -1
    outer loop
      vertex 2 32.5 0
      vertex 0 30.5 0
      vertex 1.79094 32.489 0
    endloop
  endfacet
  facet normal 0 0 -1
    outer loop
      vertex 0 2 0
      vertex 1.38197 0.0978861 0
      vertex 1.18653 0.172909 0
    endloop
  endfacet
  facet normal 0 0 -1
    outer loop
      vertex 1.79094 32.489 0
      vertex 0 30.5 0
      vertex 1.58418 32.4563 0
    endloop
  endfacet
  facet normal 0 0 -1
    outer loop
      vertex 0 2 0
      vertex 1.18653 0.172909 0
      vertex 1 0.267949 0
    endloop
  endfacet
  facet normal 0 0 -1
    outer loop
      vertex 1.58418 32.4563 0
      vertex 0 30.5 0
      vertex 1.38197 32.4021 0
    endloop
  endfacet
  facet normal 0 0 -1
    outer loop
      vertex 0 2 0
      vertex 1 0.267949 0
      vertex 0.824429 0.381966 0
    endloop
  endfacet
  facet normal 0 0 -1
    outer loop
      vertex 1.38197 32.4021 0
      vertex 0 30.5 0
      vertex 1.18653 32.3271 0
    endloop
  endfacet
  facet normal 0 0 -1
    outer loop
      vertex 0 2 0
      vertex 0.824429 0.381966 0
      vertex 0.661738 0.51371 0
    endloop
  endfacet
  facet normal 0 0 -1
    outer loop
      vertex 1.18653 32.3271 0
      vertex 0 30.5 0
      vertex 1 32.232 0
    endloop
  endfacet
  facet normal 0 0 -1
    outer loop
      vertex 0 2 0
      vertex 0.661738 0.51371 0
      vertex 0.51371 0.661738 0
    endloop
  endfacet
  facet normal 0 0 -1
    outer loop
      vertex 1 32.232 0
      vertex 0 30.5 0
      vertex 0.824429 32.118 0
    endloop
  endfacet
  facet normal 0 0 -1
    outer loop
      vertex 0 2 0
      vertex 0.51371 0.661738 0
      vertex 0.381966 0.824429 0
    endloop
  endfacet
  facet normal 0 0 -1
    outer loop
      vertex 0.824429 32.118 0
      vertex 0 30.5 0
      vertex 0.661738 31.9863 0
    endloop
  endfacet
  facet normal 0 0 -1
    outer loop
      vertex 0 2 0
      vertex 0.381966 0.824429 0
      vertex 0.267949 1 0
    endloop
  endfacet
  facet normal 0 0 -1
    outer loop
      vertex 0.661738 31.9863 0
      vertex 0 30.5 0
      vertex 0.51371 31.8383 0
    endloop
  endfacet
  facet normal 0 0 -1
    outer loop
      vertex 0 2 0
      vertex 0.267949 1 0
      vertex 0.172909 1.18653 0
    endloop
  endfacet
  facet normal 0 0 -1
    outer loop
      vertex 0.51371 31.8383 0
      vertex 0 30.5 0
      vertex 0.381966 31.6756 0
    endloop
  endfacet
  facet normal 0 0 -1
    outer loop
      vertex 0 2 0
      vertex 0.172909 1.18653 0
      vertex 0.0978861 1.38197 0
    endloop
  endfacet
  facet normal 0 0 -1
    outer loop
      vertex 0.381966 31.6756 0
      vertex 0 30.5 0
      vertex 0.267949 31.5 0
    endloop
  endfacet
  facet normal 0 0 -1
    outer loop
      vertex 0 2 0
      vertex 0.0978861 1.38197 0
      vertex 0.043704 1.58418 0
    endloop
  endfacet
  facet normal 0 0 -1
    outer loop
      vertex 0.267949 31.5 0
      vertex 0 30.5 0
      vertex 0.172909 31.3135 0
    endloop
  endfacet
  facet normal 0 0 -1
    outer loop
      vertex 0 2 0
      vertex 0.043704 1.58418 0
      vertex 0.0109558 1.79094 0
    endloop
  endfacet
  facet normal 0 0 -1
    outer loop
      vertex 0.172909 31.3135 0
      vertex 0 30.5 0
      vertex 0.0978861 31.118 0
    endloop
  endfacet
  facet normal 0 0 -1
    outer loop
      vertex 0.0978861 31.118 0
      vertex 0 30.5 0
      vertex 0.043704 30.9158 0
    endloop
  endfacet
  facet normal 0 0 -1
    outer loop
      vertex 0.043704 30.9158 0
      vertex 0 30.5 0
      vertex 0.0109558 30.7091 0
    endloop
  endfacet
  facet normal -0.99863 0.0523233 0
    outer loop
      vertex 0 30.5 0
      vertex 0.0109558 30.7091 17.1
      vertex 0.0109558 30.7091 0
    endloop
  endfacet
  facet normal -0.99863 0.0523233 0
    outer loop
      vertex 0.0109558 30.7091 17.1
      vertex 0 30.5 0
      vertex 0 30.5 17.1
    endloop
  endfacet
  facet normal -1 0 0
    outer loop
      vertex 57.5 30.5 2
      vertex 57.5 29.51 14
      vertex 57.5 30.5 14
    endloop
  endfacet
  facet normal -1 0 0
    outer loop
      vertex 57.5 29.51 14
      vertex 57.5 23.25 15.6
      vertex 57.5 29.51 17.1
    endloop
  endfacet
  facet normal -1 0 0
    outer loop
      vertex 57.5 30.5 2
      vertex 57.5 23.25 15.6
      vertex 57.5 29.51 14
    endloop
  endfacet
  facet normal -1 0 0
    outer loop
      vertex 57.5 30.5 2
      vertex 57.5 9.25 15.6
      vertex 57.5 23.25 15.6
    endloop
  endfacet
  facet normal -1 0 0
    outer loop
      vertex 57.5 2.99 17.1
      vertex 57.5 9.25 15.6
      vertex 57.5 2.99 14
    endloop
  endfacet
  facet normal -1 0 0
    outer loop
      vertex 57.5 2 2
      vertex 57.5 9.25 15.6
      vertex 57.5 30.5 2
    endloop
  endfacet
  facet normal -1 0 0
    outer loop
      vertex 57.5 9.25 15.6
      vertex 57.5 2 2
      vertex 57.5 2.99 14
    endloop
  endfacet
  facet normal -1 -0 0
    outer loop
      vertex 57.5 2.99 14
      vertex 57.5 2 2
      vertex 57.5 2 14
    endloop
  endfacet
  facet normal -1 -0 0
    outer loop
      vertex 57.5 29.51 17.1
      vertex 57.5 23.25 15.6
      vertex 57.5 23.25 17.1
    endloop
  endfacet
  facet normal -1 0 0
    outer loop
      vertex 57.5 9.25 15.6
      vertex 57.5 2.99 17.1
      vertex 57.5 9.25 17.1
    endloop
  endfacet
  facet normal 0 0 1
    outer loop
      vertex 57.5 30.5 2
      vertex 55.1 17.25 2
      vertex 57.5 2 2
    endloop
  endfacet
  facet normal 0 0 1
    outer loop
      vertex 57.5 30.5 2
      vertex 4.4 17.25 2
      vertex 55.1 17.25 2
    endloop
  endfacet
  facet normal 0 0 1
    outer loop
      vertex 4.4 17.25 2
      vertex 2 30.5 2
      vertex 4.4 15.25 2
    endloop
  endfacet
  facet normal -0 0 1
    outer loop
      vertex 2 30.5 2
      vertex 4.4 17.25 2
      vertex 57.5 30.5 2
    endloop
  endfacet
  facet normal -0 0 1
    outer loop
      vertex 55.1 15.25 2
      vertex 57.5 2 2
      vertex 55.1 17.25 2
    endloop
  endfacet
  facet normal -0 0 1
    outer loop
      vertex 4.4 15.25 2
      vertex 57.5 2 2
      vertex 55.1 15.25 2
    endloop
  endfacet
  facet normal 0 0 1
    outer loop
      vertex 4.4 15.25 2
      vertex 2 2 2
      vertex 57.5 2 2
    endloop
  endfacet
  facet normal 0 0 1
    outer loop
      vertex 2 2 2
      vertex 4.4 15.25 2
      vertex 2 30.5 2
    endloop
  endfacet
  facet normal 1 0 0
    outer loop
      vertex 2 2.99 14
      vertex 2 11.25 17.1
      vertex 2 2.99 17.1
    endloop
  endfacet
  facet normal 1 0 0
    outer loop
      vertex 2 29.51 17.1
      vertex 2 21.25 17.1
      vertex 2 29.51 14
    endloop
  endfacet
  facet normal 1 -0 0
    outer loop
      vertex 2 29.51 14
      vertex 2 30.5 2
      vertex 2 30.5 14
    endloop
  endfacet
  facet normal 1 0 0
    outer loop
      vertex 2 21.25 12.3
      vertex 2 29.51 14
      vertex 2 21.25 17.1
    endloop
  endfacet
  facet normal 1 0 0
    outer loop
      vertex 2 29.51 14
      vertex 2 21.25 12.3
      vertex 2 30.5 2
    endloop
  endfacet
  facet normal 1 -0 0
    outer loop
      vertex 2 11.25 12.3
      vertex 2 30.5 2
      vertex 2 21.25 12.3
    endloop
  endfacet
  facet normal 1 0 0
    outer loop
      vertex 2 11.25 17.1
      vertex 2 2.99 14
      vertex 2 11.25 12.3
    endloop
  endfacet
  facet normal 1 0 0
    outer loop
      vertex 2 2 2
      vertex 2 11.25 12.3
      vertex 2 2.99 14
    endloop
  endfacet
  facet normal 1 0 0
    outer loop
      vertex 2 2 2
      vertex 2 2.99 14
      vertex 2 2 14
    endloop
  endfacet
  facet normal 1 0 0
    outer loop
      vertex 2 11.25 12.3
      vertex 2 2 2
      vertex 2 30.5 2
    endloop
  endfacet
  facet normal 0 -1 0
    outer loop
      vertex 2 30.5 2
      vertex 57.5 30.5 14
      vertex 2 30.5 14
    endloop
  endfacet
  facet normal 0 -1 -0
    outer loop
      vertex 57.5 30.5 14
      vertex 2 30.5 2
      vertex 57.5 30.5 2
    endloop
  endfacet
  facet normal 0 1 -0
    outer loop
      vertex 57.5 2 2
      vertex 2 2 14
      vertex 57.5 2 14
    endloop
  endfacet
  facet normal 0 1 0
    outer loop
      vertex 2 2 14
      vertex 57.5 2 2
      vertex 2 2 2
    endloop
  endfacet
  facet normal -0 0 1
    outer loop
      vertex 0 21.25 12.3
      vertex 2 11.25 12.3
      vertex 2 21.25 12.3
    endloop
  endfacet
  facet normal 0 0 1
    outer loop
      vertex 2 11.25 12.3
      vertex 0 21.25 12.3
      vertex 0 11.25 12.3
    endloop
  endfacet
  facet normal 0 -1 0
    outer loop
      vertex 0 21.25 12.3
      vertex 2 21.25 17.1
      vertex 0 21.25 17.1
    endloop
  endfacet
  facet normal 0 -1 -0
    outer loop
      vertex 2 21.25 17.1
      vertex 0 21.25 12.3
      vertex 2 21.25 12.3
    endloop
  endfacet
  facet normal 0 1 -0
    outer loop
      vertex 2 11.25 12.3
      vertex 0 11.25 17.1
      vertex 2 11.25 17.1
    endloop
  endfacet
  facet normal 0 1 0
    outer loop
      vertex 0 11.25 17.1
      vertex 2 11.25 12.3
      vertex 0 11.25 12.3
    endloop
  endfacet
  facet normal -0 0 1
    outer loop
      vertex 57.5 23.25 15.6
      vertex 59.5 9.25 15.6
      vertex 59.5 23.25 15.6
    endloop
  endfacet
  facet normal 0 0 1
    outer loop
      vertex 59.5 9.25 15.6
      vertex 57.5 23.25 15.6
      vertex 57.5 9.25 15.6
    endloop
  endfacet
  facet normal 0 -1 0
    outer loop
      vertex 57.5 23.25 15.6
      vertex 59.5 23.25 17.1
      vertex 57.5 23.25 17.1
    endloop
  endfacet
  facet normal 0 -1 -0
    outer loop
      vertex 59.5 23.25 17.1
      vertex 57.5 23.25 15.6
      vertex 59.5 23.25 15.6
    endloop
  endfacet
  facet normal 0 1 -0
    outer loop
      vertex 59.5 9.25 15.6
      vertex 57.5 9.25 17.1
      vertex 59.5 9.25 17.1
    endloop
  endfacet
  facet normal 0 1 0
    outer loop
      vertex 57.5 9.25 17.1
      vertex 59.5 9.25 15.6
      vertex 57.5 9.25 15.6
    endloop
  endfacet
  facet normal -1 0 0
    outer loop
      vertex 14 0 14
      vertex 14 1.99 17.1
      vertex 14 1.99 14
    endloop
  endfacet
  facet normal -1 -0 0
    outer loop
      vertex 14 1.99 17.1
      vertex 14 0 14
      vertex 14 0 17.1
    endloop
  endfacet
  facet normal 0 0 -1
    outer loop
      vertex 2 2 14
      vertex 57.5 2.99 14
      vertex 57.5 2 14
    endloop
  endfacet
  facet normal -0 0 -1
    outer loop
      vertex 57.5 2.99 14
      vertex 2 2 14
      vertex 2 2.99 14
    endloop
  endfacet
  facet normal -0 0 1
    outer loop
      vertex 8 1.99 14
      vertex 14 0 14
      vertex 14 1.99 14
    endloop
  endfacet
  facet normal 0 0 1
    outer loop
      vertex 14 0 14
      vertex 8 1.99 14
      vertex 8 0 14
    endloop
  endfacet
  facet normal 1 -0 0
    outer loop
      vertex 8 0 17.1
      vertex 8 1.99 14
      vertex 8 1.99 17.1
    endloop
  endfacet
  facet normal 1 0 0
    outer loop
      vertex 8 1.99 14
      vertex 8 0 17.1
      vertex 8 0 14
    endloop
  endfacet
  facet normal -1 0 0
    outer loop
      vertex 14 30.51 14
      vertex 14 32.5 17.1
      vertex 14 32.5 14
    endloop
  endfacet
  facet normal -1 -0 0
    outer loop
      vertex 14 32.5 17.1
      vertex 14 30.51 14
      vertex 14 30.51 17.1
    endloop
  endfacet
  facet normal 0 0 -1
    outer loop
      vertex 2 29.51 14
      vertex 57.5 30.5 14
      vertex 57.5 29.51 14
    endloop
  endfacet
  facet normal -0 0 -1
    outer loop
      vertex 57.5 30.5 14
      vertex 2 29.51 14
      vertex 2 30.5 14
    endloop
  endfacet
  facet normal -0 0 1
    outer loop
      vertex 8 32.5 14
      vertex 14 30.51 14
      vertex 14 32.5 14
    endloop
  endfacet
  facet normal 0 0 1
    outer loop
      vertex 14 30.51 14
      vertex 8 32.5 14
      vertex 8 30.51 14
    endloop
  endfacet
  facet normal 1 -0 0
    outer loop
      vertex 8 30.51 17.1
      vertex 8 32.5 14
      vertex 8 32.5 17.1
    endloop
  endfacet
  facet normal 1 0 0
    outer loop
      vertex 8 32.5 14
      vertex 8 30.51 17.1
      vertex 8 30.51 14
    endloop
  endfacet
  facet normal 0 1 -0
    outer loop
      vertex 57.5 2.99 14
      vertex 2 2.99 17.1
      vertex 57.5 2.99 17.1
    endloop
  endfacet
  facet normal 0 1 0
    outer loop
      vertex 2 2.99 17.1
      vertex 57.5 2.99 14
      vertex 2 2.99 14
    endloop
  endfacet
  facet normal 0 -1 0
    outer loop
      vertex 8 1.99 14
      vertex 14 1.99 17.1
      vertex 8 1.99 17.1
    endloop
  endfacet
  facet normal 0 -1 -0
    outer loop
      vertex 14 1.99 17.1
      vertex 8 1.99 14
      vertex 14 1.99 14
    endloop
  endfacet
  facet normal 0 1 -0
    outer loop
      vertex 14 30.51 14
      vertex 8 30.51 17.1
      vertex 14 30.51 17.1
    endloop
  endfacet
  facet normal 0 1 0
    outer loop
      vertex 8 30.51 17.1
      vertex 14 30.51 14
      vertex 8 30.51 14
    endloop
  endfacet
  facet normal 0 -1 0
    outer loop
      vertex 2 29.51 14
      vertex 57.5 29.51 17.1
      vertex 2 29.51 17.1
    endloop
  endfacet
  facet normal 0 -1 -0
    outer loop
      vertex 57.5 29.51 17.1
      vertex 2 29.51 14
      vertex 57.5 29.51 14
    endloop
  endfacet
endsolid OpenSCAD_Model
